<?xml version="1.0" encoding="UTF-8" standalone="no"?>
<svg
   xmlns:dc="http://purl.org/dc/elements/1.1/"
   xmlns:cc="http://creativecommons.org/ns#"
   xmlns:rdf="http://www.w3.org/1999/02/22-rdf-syntax-ns#"
   xmlns:svg="http://www.w3.org/2000/svg"
   xmlns="http://www.w3.org/2000/svg"
   xmlns:sodipodi="http://sodipodi.sourceforge.net/DTD/sodipodi-0.dtd"
   xmlns:inkscape="http://www.inkscape.org/namespaces/inkscape"
   viewBox="0 0 16 16"
   id="svg2"
   version="1.1"
   inkscape:version="0.91 r13725"
   sodipodi:docname="trayIcon-Wait.svg">
  <metadata
     id="metadata22">
    <rdf:RDF>
      <cc:Work
         rdf:about="">
        <dc:format>image/svg+xml</dc:format>
        <dc:type
           rdf:resource="http://purl.org/dc/dcmitype/StillImage" />
        <dc:title></dc:title>
      </cc:Work>
    </rdf:RDF>
  </metadata>
  <defs
     id="defs20" />
  <sodipodi:namedview
     pagecolor="#ffffff"
     bordercolor="#666666"
     borderopacity="1"
     objecttolerance="10"
     gridtolerance="10"
     guidetolerance="10"
     inkscape:pageopacity="0"
     inkscape:pageshadow="2"
     inkscape:window-width="1366"
     inkscape:window-height="744"
     id="namedview18"
     showgrid="false"
     inkscape:zoom="14.75"
     inkscape:cx="9.7471852"
     inkscape:cy="9.5495765"
     inkscape:window-x="0"
     inkscape:window-y="24"
     inkscape:window-maximized="1"
     inkscape:current-layer="svg2" />
  <rect
     style="fill:#666666;fill-opacity:1;stroke:none;stroke-width:10;stroke-linejoin:round;stroke-miterlimit:4;stroke-dasharray:none;stroke-opacity:1;opacity:0"
     id="rect4181"
     width="16"
     height="16"
     x="0.13559322"
     y="0.20338982"
     inkscape:export-filename="/var/www/nodejs/vagrant-manager/assets/logo/trayIconWait-3.png"
     inkscape:export-xdpi="200"
     inkscape:export-ydpi="200" />
  <path
     inkscape:connector-curvature="0"
     id="path7095"
     d="M 8.1356375,1.3072238 4.2480277,8.0407453 a 4.6027465,4.6027465 0 0 0 -0.098204,0.1568815 4.6027465,4.6027465 0 0 0 -0.059577,0.1164677 l -0.049396,0.085443 c -0.00234,0.00361 -0.00234,0.00826 -4.683e-4,0.011858 a 4.6027465,4.6027465 0 0 0 0.3499323,4.7501735 4.6027465,4.6027465 0 0 0 0.1130698,0.156418 4.6027465,4.6027465 0 0 0 0.1566467,0.187648 4.6027465,4.6027465 0 0 0 0.1485486,0.167431 4.6027465,4.6027465 0 0 0 0.1562032,0.1526 4.6027465,4.6027465 0 0 0 0.1833809,0.169002 4.6027465,4.6027465 0 0 0 0.1492375,0.11956 4.6027465,4.6027465 0 0 0 0.2200182,0.16565 4.6027465,4.6027465 0 0 0 0.1422636,0.09212 4.6027465,4.6027465 0 0 0 0.2849811,0.172381 4.6027465,4.6027465 0 0 0 0.069177,0.03393 4.6027465,4.6027465 0 0 0 0.3429674,0.163611 4.6027465,4.6027465 0 0 0 0.1026537,0.03805 4.6027465,4.6027465 0 0 0 0.3256559,0.117057 4.6027465,4.6027465 0 0 0 0.140693,0.03664 4.6027465,4.6027465 0 0 0 0.3031708,0.07572 4.6027465,4.6027465 0 0 0 0.1762061,0.02738 4.6027465,4.6027465 0 0 0 0.2726088,0.04003 4.6027465,4.6027465 0 0 0 0.2215992,0.01216 4.6027465,4.6027465 0 0 0 0.2362067,0.01064 4.6027465,4.6027465 0 0 0 0.2359864,-0.01064 4.6027465,4.6027465 0 0 0 0.2216006,-0.01216 4.6027465,4.6027465 0 0 0 0.2723891,-0.03979 4.6027465,4.6027465 0 0 0 0.1766407,-0.02761 4.6027465,4.6027465 0 0 0 0.3067775,-0.07667 4.6027465,4.6027465 0 0 0 0.136196,-0.03546 4.6027465,4.6027465 0 0 0 0.3231898,-0.116237 4.6027465,4.6027465 0 0 0 0.1067545,-0.03955 4.6027465,4.6027465 0 0 0 0.3400405,-0.162039 4.6027465,4.6027465 0 0 0 0.0714,-0.03512 4.6027465,4.6027465 0 0 0 0.285882,-0.173051 4.6027465,4.6027465 0 0 0 0.14114,-0.09144 4.6027465,4.6027465 0 0 0 0.219119,-0.164748 4.6027465,4.6027465 0 0 0 0.150583,-0.120674 4.6027465,4.6027465 0 0 0 0.181814,-0.16743 4.6027465,4.6027465 0 0 0 0.158894,-0.155515 4.6027465,4.6027465 0 0 0 0.144512,-0.162941 4.6027465,4.6027465 0 0 0 0.15934,-0.190591 4.6027465,4.6027465 0 0 0 0.115051,-0.159356 4.6027465,4.6027465 0 0 0 0.347907,-4.7472474 c 0.0012,-0.00361 0.0012,-0.00826 -6.91e-4,-0.011858 l -0.04928,-0.085443 A 4.6027465,4.6027465 0 0 0 12.121033,8.1975624 4.6027465,4.6027465 0 0 0 12.023056,8.0407067 L 8.1354338,1.3071825 Z"
     style="opacity:1;fill:#939dac;fill-opacity:1;fill-rule:nonzero;stroke:none;stroke-width:36.20000076;stroke-linecap:round;stroke-linejoin:round;stroke-miterlimit:4;stroke-dasharray:none;stroke-dashoffset:0;stroke-opacity:1"
     inkscape:export-filename="/var/www/nodejs/vagrant-manager/assets/logo/trayIconWait-3.png"
     inkscape:export-xdpi="200"
     inkscape:export-ydpi="200" />
</svg>
